<svg width="2000px" height="1709px"
 viewBox="0.00 0.00 453.09 387.42" xmlns="http://www.w3.org/2000/svg" xmlns:xlink="http://www.w3.org/1999/xlink">
<g id="graph0" class="graph" transform="scale(1.0 1.0) rotate(0) translate(4 383.42)">
<title>ContextMapGraph</title>
<polygon fill="white" stroke="none" points="-4,4 -4,-383.42 449.09,-383.42 449.09,4 -4,4"/>
<!-- CargoBookingContext -->
<g id="node1" class="node">
<title>CargoBookingContext</title>
<polygon fill="none" stroke="black" stroke-width="2" points="21.11,-169.99 25.3,-167.52 29.81,-165.13 34.63,-162.81 39.73,-160.58 45.1,-158.45 50.72,-156.42 56.58,-154.51 62.64,-152.73 68.9,-151.07 75.33,-149.55 81.92,-148.17 88.64,-146.94 95.47,-145.86 102.4,-144.93 109.4,-144.16 116.46,-143.55 123.56,-143.09 130.69,-142.8 137.81,-142.66 144.93,-142.68 152.01,-142.86 159.04,-143.19 166.02,-143.67 172.92,-144.29 179.72,-145.05 186.42,-145.95 193,-146.98 199.45,-148.12 205.75,-149.39 211.89,-150.76 217.86,-152.23 223.65,-153.8 229.25,-155.45 234.64,-157.18 239.82,-158.98 244.77,-160.84 249.49,-162.76 253.96,-164.73 258.18,-166.73 262.14,-168.77 265.82,-170.83 269.23,-172.91 272.34,-175.01 275.16,-177.1 277.67,-179.2 279.87,-181.3 281.75,-183.38 283.31,-185.45 284.53,-187.5 285.42,-189.53 285.96,-191.53 286.15,-193.5 286,-195.44 285.48,-197.34 284.61,-199.21 283.38,-201.04 281.79,-202.83 279.83,-204.58 277.52,-206.29 274.84,-207.95 271.81,-209.56 268.42,-211.13 264.68,-212.66 260.6,-214.13 256.19,-215.56 251.44,-216.94 246.38,-218.27 241.01,-219.54 235.34,-220.76 229.39,-221.93 223.17,-223.04 216.7,-224.09 209.99,-225.08 203.06,-226.01 195.93,-226.87 188.62,-227.67 181.16,-228.39 173.56,-229.04 165.84,-229.61 158.03,-230.1 150.16,-230.5 142.24,-230.82 134.31,-231.04 126.39,-231.17 118.51,-231.21 110.69,-231.14 102.95,-230.96 95.33,-230.68 87.85,-230.29 80.53,-229.78 73.4,-229.16 66.49,-228.42 59.82,-227.56 53.4,-226.58 47.27,-225.49 41.44,-224.27 35.93,-222.93 30.76,-221.48 25.95,-219.91 21.51,-218.23 17.46,-216.43 13.82,-214.53 10.58,-212.53 7.76,-210.43 5.37,-208.24 3.42,-205.97 1.9,-203.61 0.82,-201.19 0.19,-198.71 0,-196.17 0.25,-193.59 0.93,-190.97 2.04,-188.32 3.58,-185.67 5.53,-183 7.88,-180.35 10.63,-177.71 13.76,-175.09 17.26,-172.52 21.11,-169.99"/>
<text text-anchor="middle" x="147.09" y="-182.67" font-family="sans-serif" font-size="16.00">CargoBookingContext</text>
</g>
<!-- VoyagePlanningContext -->
<g id="node2" class="node">
<title>VoyagePlanningContext</title>
<polygon fill="none" stroke="black" stroke-width="2" points="103.69,-27.33 108.2,-24.86 113.04,-22.46 118.22,-20.15 123.7,-17.92 129.48,-15.78 135.52,-13.76 141.81,-11.85 148.33,-10.07 155.06,-8.41 161.97,-6.89 169.05,-5.51 176.27,-4.28 183.61,-3.19 191.06,-2.27 198.58,-1.5 206.17,-0.88 213.81,-0.43 221.46,-0.14 229.12,0 236.76,-0.02 244.38,-0.2 251.94,-0.53 259.43,-1.01 266.85,-1.63 274.16,-2.39 281.36,-3.29 288.43,-4.31 295.36,-5.46 302.13,-6.72 308.73,-8.1 315.15,-9.57 321.37,-11.13 327.39,-12.79 333.18,-14.52 338.75,-16.32 344.07,-18.18 349.14,-20.1 353.95,-22.06 358.48,-24.07 362.74,-26.11 366.7,-28.17 370.35,-30.25 373.7,-32.34 376.73,-34.44 379.43,-36.54 381.79,-38.63 383.82,-40.72 385.49,-42.79 386.8,-44.84 387.75,-46.86 388.34,-48.87 388.55,-50.84 388.38,-52.78 387.83,-54.68 386.89,-56.55 385.57,-58.38 383.86,-60.17 381.75,-61.92 379.27,-63.62 376.39,-65.28 373.13,-66.9 369.49,-68.47 365.47,-70 361.09,-71.47 356.34,-72.9 351.24,-74.28 345.8,-75.6 340.03,-76.88 333.94,-78.1 327.54,-79.27 320.86,-80.38 313.9,-81.43 306.69,-82.42 299.24,-83.35 291.58,-84.21 283.73,-85 275.7,-85.73 267.53,-86.37 259.24,-86.94 250.85,-87.43 242.39,-87.84 233.88,-88.16 225.36,-88.38 216.85,-88.51 208.37,-88.54 199.97,-88.47 191.65,-88.3 183.46,-88.02 175.42,-87.62 167.56,-87.12 159.9,-86.49 152.47,-85.76 145.29,-84.9 138.4,-83.92 131.81,-82.82 125.54,-81.61 119.62,-80.27 114.07,-78.82 108.9,-77.25 104.13,-75.56 99.78,-73.77 95.85,-71.87 92.37,-69.87 89.35,-67.77 86.78,-65.58 84.68,-63.3 83.05,-60.95 81.89,-58.53 81.21,-56.04 81.01,-53.51 81.27,-50.92 82.01,-48.3 83.2,-45.66 84.85,-43 86.95,-40.34 89.48,-37.68 92.43,-35.04 95.8,-32.43 99.56,-29.86 103.69,-27.33"/>
<text text-anchor="middle" x="239.09" y="-40.01" font-family="sans-serif" font-size="16.00">VoyagePlanningContext</text>
</g>
<!-- CargoBookingContext&#45;&gt;VoyagePlanningContext -->
<g id="edge1" class="edge">
<title>CargoBookingContext&#45;&gt;VoyagePlanningContext</title>
<path fill="none" stroke="black" stroke-width="2" d="M175.95,-144.5C187.65,-126.61 201.07,-106.09 212.53,-88.57"/>
<text text-anchor="middle" x="233.72" y="-113.26" font-family="sans-serif" font-size="12.00">Shared Kernel</text>
</g>
<!-- LocationContext -->
<g id="node3" class="node">
<title>LocationContext</title>
<polygon fill="none" stroke="black" stroke-width="2" points="134.68,-349.82 131.52,-347.32 128.67,-344.79 126.13,-342.23 123.92,-339.66 122.06,-337.09 120.54,-334.53 119.38,-331.98 118.58,-329.46 118.16,-326.97 118.1,-324.53 118.42,-322.13 119.12,-319.8 120.19,-317.53 121.63,-315.34 123.44,-313.22 125.62,-311.19 128.15,-309.24 131.02,-307.39 134.24,-305.64 137.78,-303.99 141.64,-302.44 145.79,-300.99 150.23,-299.65 154.94,-298.41 159.89,-297.29 165.08,-296.27 170.48,-295.36 176.08,-294.56 181.84,-293.86 187.76,-293.26 193.81,-292.77 199.97,-292.37 206.21,-292.08 212.52,-291.88 218.87,-291.78 225.25,-291.76 231.62,-291.84 237.98,-292 244.29,-292.24 250.54,-292.57 256.71,-292.98 262.78,-293.46 268.74,-294.02 274.56,-294.65 280.24,-295.35 285.75,-296.13 291.08,-296.97 296.22,-297.88 301.15,-298.85 305.87,-299.89 310.37,-301 314.64,-302.17 318.66,-303.4 322.44,-304.69 325.96,-306.05 329.22,-307.46 332.23,-308.94 334.96,-310.47 337.43,-312.06 339.63,-313.71 341.55,-315.42 343.21,-317.18 344.6,-318.99 345.71,-320.86 346.56,-322.77 347.15,-324.73 347.46,-326.74 347.52,-328.78 347.32,-330.86 346.86,-332.98 346.15,-335.12 345.2,-337.28 343.99,-339.47 342.55,-341.66 340.87,-343.86 338.96,-346.06 336.82,-348.26 334.45,-350.44 331.86,-352.6 329.06,-354.73 326.05,-356.83 322.83,-358.88 319.41,-360.87 315.79,-362.81 311.99,-364.68 307.99,-366.47 303.82,-368.17 299.48,-369.79 294.97,-371.3 290.31,-372.7 285.49,-373.99 280.53,-375.15 275.43,-376.19 270.21,-377.09 264.88,-377.86 259.44,-378.47 253.91,-378.94 248.29,-379.26 242.61,-379.42 236.87,-379.42 231.09,-379.27 225.28,-378.95 219.45,-378.48 213.63,-377.85 207.83,-377.06 202.05,-376.12 196.33,-375.02 190.68,-373.78 185.12,-372.4 179.66,-370.88 174.32,-369.24 169.12,-367.46 164.07,-365.58 159.21,-363.58 154.54,-361.48 150.07,-359.3 145.84,-357.03 141.85,-354.68 138.13,-352.28 134.68,-349.82"/>
<text text-anchor="middle" x="238.09" y="-325.42" font-family="sans-serif" font-size="16.00">LocationContext</text>
</g>
<!-- LocationContext&#45;&gt;CargoBookingContext -->
<g id="edge2" class="edge">
<title>LocationContext&#45;&gt;CargoBookingContext</title>
<path fill="none" stroke="black" stroke-width="2" d="M211.81,-291.45C206.58,-283.47 201.15,-275.14 196.09,-267.33 188.11,-254.99 179.46,-241.49 171.68,-229.31"/>
<text text-anchor="middle" x="256.09" y="-255.93" font-family="sans-serif" font-size="12.00"> &#160;&#160;&#160;&#160;&#160;&#160;&#160;&#160;&#160;&#160;&#160;&#160;&#160;&#160;&#160;&#160;&#160;&#160;&#160;&#160;&#160;&#160;&#160;&#160;&#160;&#160;&#160;&#160;&#160;&#160;&#160;&#160;&#160;&#160;&#160;&#160;&#160;&#160;&#160;</text>
<polygon fill="white" stroke="none" points="165.18,-220.93 165.18,-237.68 178.18,-237.68 178.18,-220.93 165.18,-220.93"/>
<text text-anchor="start" x="167.18" y="-224.28" font-family="sans-serif" font-size="12.00">D</text>
<polygon fill="white" stroke="none" points="177.68,-282.07 177.68,-300.82 192.68,-300.82 192.68,-282.07 177.68,-282.07"/>
<polyline fill="none" stroke="black" points="192.68,-282.07 192.68,-300.82"/>
<text text-anchor="start" x="180.68" y="-286.42" font-family="sans-serif" font-size="12.00">U</text>
<polygon fill="white" stroke="none" points="192.68,-282.07 192.68,-300.82 245.93,-300.82 245.93,-282.07 192.68,-282.07"/>
<polygon fill="none" stroke="black" points="192.68,-282.07 192.68,-300.82 245.93,-300.82 245.93,-282.07 192.68,-282.07"/>
<text text-anchor="start" x="195.68" y="-286.42" font-family="sans-serif" font-size="12.00">OHS, PL</text>
</g>
<!-- LocationContext&#45;&gt;VoyagePlanningContext -->
<g id="edge3" class="edge">
<title>LocationContext&#45;&gt;VoyagePlanningContext</title>
<path fill="none" stroke="black" stroke-width="2" d="M293.09,-296.99C302.41,-288.51 310.78,-278.57 316.09,-267.33 344.99,-206.21 303.11,-131.15 270.7,-86.57"/>
<text text-anchor="middle" x="385.09" y="-184.59" font-family="sans-serif" font-size="12.00"> &#160;&#160;&#160;&#160;&#160;&#160;&#160;&#160;&#160;&#160;&#160;&#160;&#160;&#160;&#160;&#160;&#160;&#160;&#160;&#160;&#160;&#160;&#160;&#160;&#160;&#160;&#160;&#160;&#160;&#160;&#160;&#160;&#160;&#160;&#160;&#160;&#160;&#160;&#160;</text>
<polygon fill="white" stroke="none" points="264.2,-78.19 264.2,-94.94 277.2,-94.94 277.2,-78.19 264.2,-78.19"/>
<text text-anchor="start" x="266.2" y="-81.54" font-family="sans-serif" font-size="12.00">D</text>
<polygon fill="white" stroke="none" points="258.97,-287.62 258.97,-306.37 273.97,-306.37 273.97,-287.62 258.97,-287.62"/>
<polyline fill="none" stroke="black" points="273.97,-287.62 273.97,-306.37"/>
<text text-anchor="start" x="261.97" y="-291.97" font-family="sans-serif" font-size="12.00">U</text>
<polygon fill="white" stroke="none" points="273.97,-287.62 273.97,-306.37 327.22,-306.37 327.22,-287.62 273.97,-287.62"/>
<polygon fill="none" stroke="black" points="273.97,-287.62 273.97,-306.37 327.22,-306.37 327.22,-287.62 273.97,-287.62"/>
<text text-anchor="start" x="276.97" y="-291.97" font-family="sans-serif" font-size="12.00">OHS, PL</text>
</g>
</g>
</svg>
